<svg width="21" height="19" viewBox="0 0 21 19" fill="none" xmlns="http://www.w3.org/2000/svg">
<path d="M1.66797 8.46992C1.00523 8.46992 0.467969 9.00718 0.467969 9.66992C0.467969 10.3327 1.00523 10.8699 1.66797 10.8699L1.66797 8.46992ZM20.5165 10.5185C20.9851 10.0498 20.9851 9.29002 20.5165 8.82139L12.8797 1.18464C12.4111 0.716011 11.6513 0.716011 11.1827 1.18464C10.7141 1.65327 10.7141 2.41307 11.1827 2.8817L17.9709 9.66992L11.1827 16.4581C10.7141 16.9268 10.7141 17.6866 11.1827 18.1552C11.6513 18.6238 12.4111 18.6238 12.8797 18.1552L20.5165 10.5185ZM1.66797 10.8699L19.668 10.8699V8.46992L1.66797 8.46992L1.66797 10.8699Z" fill="white"/>
</svg>
