<svg width="32" height="32" viewBox="0 0 32 32" fill="none" xmlns="http://www.w3.org/2000/svg">
<path d="M7.52099 12.9166C7.1772 12.9166 6.84729 12.9691 6.51891 13.0169C6.62529 12.6592 6.73475 12.2954 6.91049 11.9685C7.08625 11.4937 7.36066 11.0821 7.63354 10.6674C7.8617 10.2187 8.26408 9.91502 8.56008 9.53114C8.86995 9.15806 9.29237 8.90985 9.62691 8.59997C9.95529 8.27622 10.3854 8.11435 10.7277 7.88618C11.0853 7.68114 11.3967 7.45452 11.7297 7.3466L12.5607 7.00435L13.2915 6.70064L12.5437 3.71289L11.6234 3.93489C11.3289 4.00889 10.9697 4.09522 10.5612 4.19852C10.1434 4.2756 9.69783 4.48681 9.20141 4.67952C8.71116 4.89843 8.14383 5.04643 7.61658 5.39793C7.08624 5.73402 6.4742 6.0146 5.93462 6.46477C5.412 6.92881 4.78145 7.33118 4.31587 7.92164C3.80712 8.47356 3.30454 9.05323 2.9145 9.71306C2.46279 10.3421 2.156 11.0327 1.83225 11.7157C1.53933 12.3986 1.30345 13.097 1.11075 13.7754C0.745371 15.1351 0.581954 16.427 0.518746 17.5324C0.46633 18.6393 0.497163 19.5597 0.561913 20.2257C0.585038 20.5402 0.628205 20.8454 0.659038 21.0566L0.697579 21.3156L0.737663 21.3064C1.01187 22.5873 1.64309 23.7643 2.55831 24.7014C3.47354 25.6385 4.63537 26.2974 5.9094 26.6018C7.18343 26.9061 8.5176 26.8436 9.75757 26.4214C10.9975 25.9992 12.0927 25.2346 12.9162 24.216C13.7398 23.1974 14.2581 21.9664 14.4113 20.6655C14.5645 19.3646 14.3463 18.0469 13.7819 16.8649C13.2175 15.6828 12.33 14.6847 11.222 13.986C10.114 13.2873 8.83088 12.9166 7.52099 12.9166ZM24.4793 12.9166C24.1355 12.9166 23.8056 12.9691 23.4772 13.0169C23.5836 12.6592 23.6931 12.2954 23.8688 11.9685C24.0446 11.4937 24.319 11.0821 24.5919 10.6674C24.82 10.2187 25.2224 9.91502 25.5184 9.53114C25.8283 9.15806 26.2507 8.90985 26.5852 8.59997C26.9136 8.27622 27.3437 8.11435 27.686 7.88618C28.0437 7.68114 28.3551 7.45452 28.6881 7.3466L29.519 7.00435L30.2498 6.70064L29.5021 3.71289L28.5817 3.93489C28.2872 4.00889 27.928 4.09522 27.5195 4.19852C27.1017 4.2756 26.6562 4.48681 26.1597 4.67952C25.671 4.89997 25.1022 5.04643 24.5749 5.39947C24.0446 5.73556 23.4325 6.01614 22.893 6.46631C22.3703 6.93035 21.7398 7.33273 21.2742 7.92164C20.7654 8.47356 20.2629 9.05323 19.8728 9.71306C19.4211 10.3421 19.1143 11.0327 18.7906 11.7157C18.4977 12.3986 18.2618 13.097 18.0691 13.7754C17.7037 15.1351 17.5403 16.427 17.4771 17.5324C17.4247 18.6393 17.4555 19.5597 17.5202 20.2257C17.5434 20.5402 17.5865 20.8454 17.6174 21.0566L17.6559 21.3156L17.696 21.3064C17.9702 22.5873 18.6014 23.7643 19.5166 24.7014C20.4319 25.6385 21.5937 26.2974 22.8677 26.6018C24.1418 26.9061 25.4759 26.8436 26.7159 26.4214C27.9559 25.9992 29.051 25.2346 29.8745 24.216C30.6981 23.1974 31.2165 21.9664 31.3697 20.6655C31.5229 19.3646 31.3046 18.0469 30.7402 16.8649C30.1758 15.6828 29.2883 14.6847 28.1803 13.986C27.0724 13.2873 25.7892 12.9166 24.4793 12.9166Z" fill="#D65A31"/>
</svg>
