<svg width="15" height="15" viewBox="0 0 15 15" fill="none" xmlns="http://www.w3.org/2000/svg">
<path d="M13.4581 4.44631C13.4676 4.57955 13.4676 4.71282 13.4676 4.84606C13.4676 8.91013 10.3744 13.5929 4.72081 13.5929C2.97905 13.5929 1.36104 13.0884 0 12.2128C0.247471 12.2414 0.485391 12.2509 0.742383 12.2509C2.17954 12.2509 3.50253 11.7655 4.559 10.9374C3.20748 10.9089 2.07486 10.0237 1.68463 8.80545C1.875 8.83398 2.06534 8.85303 2.26523 8.85303C2.54124 8.85303 2.81727 8.81494 3.07424 8.74835C1.66561 8.46279 0.609111 7.2255 0.609111 5.73121V5.69315C1.01836 5.92158 1.49429 6.06435 1.99869 6.08336C1.17064 5.53132 0.628154 4.58907 0.628154 3.52308C0.628154 2.95202 0.78041 2.42854 1.04692 1.97169C2.56025 3.83717 4.83501 5.05542 7.38574 5.18869C7.33816 4.96026 7.3096 4.72234 7.3096 4.48439C7.3096 2.79022 8.68016 1.41016 10.3838 1.41016C11.269 1.41016 12.0685 1.78135 12.63 2.38097C13.3248 2.24772 13.991 1.99073 14.5812 1.63858C14.3527 2.35243 13.8673 2.95205 13.2296 3.33273C13.8483 3.26614 14.4479 3.09479 14.9999 2.85687C14.5812 3.46598 14.0577 4.00847 13.4581 4.44631V4.44631Z" fill="white"/>
</svg>
