<svg width="110" height="24" viewBox="0 0 110 24" fill="none" xmlns="http://www.w3.org/2000/svg">
<path d="M11.32 23.416C9.80533 23.416 8.38133 23.1173 7.048 22.52C5.71467 21.912 4.54133 21.0747 3.528 20.008C2.51467 18.9413 1.72 17.7093 1.144 16.312C0.568 14.904 0.28 13.4 0.28 11.8C0.28 10.2 0.568 8.70133 1.144 7.304C1.72 5.896 2.51467 4.65867 3.528 3.592C4.54133 2.52533 5.71467 1.69333 7.048 1.096C8.38133 0.487998 9.80533 0.183998 11.32 0.183998C12.8453 0.183998 14.2747 0.487998 15.608 1.096C16.9413 1.69333 18.1147 2.52533 19.128 3.592C20.1413 4.65867 20.9307 5.896 21.496 7.304C22.072 8.70133 22.36 10.2 22.36 11.8C22.36 13.4 22.072 14.904 21.496 16.312C20.9307 17.7093 20.1413 18.9413 19.128 20.008C18.1147 21.0747 16.9413 21.912 15.608 22.52C14.2747 23.1173 12.8453 23.416 11.32 23.416ZM11.32 20.088C12.3867 20.088 13.384 19.8693 14.312 19.432C15.24 18.9947 16.056 18.3973 16.76 17.64C17.4747 16.872 18.0293 15.992 18.424 15C18.8293 13.9973 19.032 12.9307 19.032 11.8C19.032 10.6693 18.8293 9.60267 18.424 8.6C18.0293 7.59733 17.4747 6.71733 16.76 5.96C16.056 5.192 15.24 4.59467 14.312 4.168C13.384 3.73067 12.3867 3.512 11.32 3.512C10.2533 3.512 9.256 3.73067 8.328 4.168C7.4 4.60533 6.57867 5.208 5.864 5.976C5.16 6.73333 4.60533 7.61333 4.2 8.616C3.80533 9.608 3.608 10.6693 3.608 11.8C3.608 12.9413 3.80533 14.0133 4.2 15.016C4.60533 16.008 5.16 16.888 5.864 17.656C6.57867 18.4133 7.4 19.0107 8.328 19.448C9.256 19.8747 10.2533 20.088 11.32 20.088ZM25.3888 23V0.599998H33.6288C34.8448 0.599998 35.9381 0.898665 36.9088 1.496C37.8794 2.09333 38.6474 2.89867 39.2128 3.912C39.7888 4.91467 40.0768 6.03467 40.0768 7.272C40.0768 8.31733 39.8794 9.272 39.4848 10.136C39.1008 11 38.5568 11.736 37.8528 12.344C37.1594 12.952 36.3648 13.3893 35.4688 13.656L40.8768 23H37.0208L31.7728 13.96H28.7168V23H25.3888ZM28.7168 10.632H33.2768C33.9168 10.632 34.4981 10.472 35.0208 10.152C35.5541 9.832 35.9754 9.40533 36.2848 8.872C36.5941 8.33867 36.7488 7.736 36.7488 7.064C36.7488 6.392 36.5941 5.78933 36.2848 5.256C35.9754 4.712 35.5541 4.28533 35.0208 3.976C34.4981 3.656 33.9168 3.496 33.2768 3.496H28.7168V10.632ZM44.2325 23V0.599998H58.1365V3.928H47.5605V9.336H56.0725V12.664H47.5605V19.672H58.1365V23H44.2325ZM71.8825 23.416C70.3678 23.416 68.9438 23.1173 67.6105 22.52C66.2772 21.912 65.1038 21.0747 64.0905 20.008C63.0772 18.9413 62.2825 17.7093 61.7065 16.312C61.1305 14.904 60.8425 13.4 60.8425 11.8C60.8425 10.2 61.1305 8.70133 61.7065 7.304C62.2825 5.896 63.0772 4.65867 64.0905 3.592C65.1038 2.52533 66.2772 1.69333 67.6105 1.096C68.9438 0.487998 70.3678 0.183998 71.8825 0.183998C73.4078 0.183998 74.8372 0.487998 76.1705 1.096C77.5038 1.69333 78.6772 2.52533 79.6905 3.592C80.7038 4.65867 81.4932 5.896 82.0585 7.304C82.6345 8.70133 82.9225 10.2 82.9225 11.8C82.9225 13.4 82.6345 14.904 82.0585 16.312C81.4932 17.7093 80.7038 18.9413 79.6905 20.008C78.6772 21.0747 77.5038 21.912 76.1705 22.52C74.8372 23.1173 73.4078 23.416 71.8825 23.416ZM71.8825 20.088C72.9492 20.088 73.9465 19.8693 74.8745 19.432C75.8025 18.9947 76.6185 18.3973 77.3225 17.64C78.0372 16.872 78.5918 15.992 78.9865 15C79.3918 13.9973 79.5945 12.9307 79.5945 11.8C79.5945 10.6693 79.3918 9.60267 78.9865 8.6C78.5918 7.59733 78.0372 6.71733 77.3225 5.96C76.6185 5.192 75.8025 4.59467 74.8745 4.168C73.9465 3.73067 72.9492 3.512 71.8825 3.512C70.8158 3.512 69.8185 3.73067 68.8905 4.168C67.9625 4.60533 67.1412 5.208 66.4265 5.976C65.7225 6.73333 65.1678 7.61333 64.7625 8.616C64.3678 9.608 64.1705 10.6693 64.1705 11.8C64.1705 12.9413 64.3678 14.0133 64.7625 15.016C65.1678 16.008 65.7225 16.888 66.4265 17.656C67.1412 18.4133 67.9625 19.0107 68.8905 19.448C69.8185 19.8747 70.8158 20.088 71.8825 20.088ZM85.9513 23V0.599998H89.5513L99.8393 16.984V0.599998H103.167V23H99.5673L89.2793 6.616V23H85.9513Z" fill="#131313"/>
<path d="M108.118 23.416C107.627 23.416 107.211 23.2453 106.87 22.904C106.539 22.5627 106.374 22.1467 106.374 21.656C106.374 21.176 106.539 20.7653 106.87 20.424C107.211 20.0827 107.627 19.912 108.118 19.912C108.608 19.912 109.024 20.0827 109.366 20.424C109.707 20.7653 109.878 21.176 109.878 21.656C109.878 22.1467 109.707 22.5627 109.366 22.904C109.024 23.2453 108.608 23.416 108.118 23.416Z" fill="#D65A31"/>
</svg>
